M48
; DRILL file {KiCad 9.0.9-9.0.9~ubuntu24.04.1} date 2026-05-31T22:25:00+0300
; FORMAT={-:-/ absolute / inch / decimal}
; #@! TF.CreationDate,2026-05-31T22:25:00+03:00
; #@! TF.GenerationSoftware,Kicad,Pcbnew,9.0.9-9.0.9~ubuntu24.04.1
; #@! TF.FileFunction,Plated,1,2,PTH
FMAT,2
INCH
; #@! TA.AperFunction,Plated,PTH,ViaDrill
T1C0.0118
; #@! TA.AperFunction,Plated,PTH,ComponentDrill
T2C0.0360
; #@! TA.AperFunction,Plated,PTH,ComponentDrill
T3C0.0394
; #@! TA.AperFunction,Plated,PTH,ComponentDrill
T4C0.0433
; #@! TA.AperFunction,Plated,PTH,ComponentDrill
T5C0.0512
; #@! TA.AperFunction,Plated,PTH,ComponentDrill
T6C0.0630
; #@! TA.AperFunction,Plated,PTH,ComponentDrill
T7C0.0709
%
G90
G05
T1
X0.1575Y-6.706
X0.3841Y-1.7642
X0.4228Y-1.8681
X0.7072Y-7.6724
X1.2498Y-7.78
X1.2907Y-6.741
X1.3298Y-5.9199
X1.3688Y-7.5671
X1.3817Y-7.7049
X1.468Y-6.8583
X1.468Y-7.4908
X1.6793Y-7.7739
X1.8213Y-1.6742
X1.8213Y-5.568
X2.0568Y-1.5426
X2.1044Y-7.6407
X2.1745Y-5.9199
X2.4189Y-2.7649
X2.9988Y-5.568
X3.2307Y-2.2642
X3.427Y-4.5077
X3.431Y-8.7745
X3.431Y-6.229
X3.4699Y-6.8818
X3.4699Y-7.4449
X3.5467Y-6.5064
X3.5704Y-7.4069
X3.5763Y-8.1496
X3.5763Y-8.7756
X3.6674Y-2.0623
X3.6916Y-5.216
X3.7406Y-8.2054
X3.7485Y-2.5058
X3.7492Y-8.0966
X3.7702Y-2.5642
X3.7992Y-5.3197
X3.8281Y-5.568
X4.0192Y-5.2726
X4.1764Y-1.7598
X4.1764Y-3.061
X5.0007Y-6.9008
X5.1255Y-8.7353
X5.1796Y-5.4889
X5.2443Y-5.2644
X5.3796Y-5.57
X5.4717Y-3.461
X5.825Y-3.2642
X6.296Y-3.9257
X6.2969Y-5.3169
X6.4941Y-1.5688
X6.4941Y-5.4193
X7.6649Y-2.7526
T2
X0.2724Y-1.0334
X0.3476Y-1.0334
X0.4228Y-1.0334
T3
X1.3386Y-1.6142
X1.3386Y-1.7142
X1.3386Y-1.8142
X1.3386Y-1.9142
X1.3386Y-2.0142
X1.3386Y-2.1142
X1.3386Y-2.2142
X1.3386Y-2.3142
X1.3386Y-2.4142
X1.3386Y-2.5142
X1.3386Y-2.6142
X1.3386Y-2.7142
X1.3386Y-2.8142
X1.3386Y-2.9142
X1.3386Y-3.0142
X1.3386Y-3.1142
X1.3386Y-3.2142
X1.3386Y-3.3142
X1.3386Y-3.4142
X1.3386Y-3.5142
X1.3386Y-4.2077
X1.3386Y-4.3077
X1.3386Y-4.4077
X1.3386Y-4.5077
X1.3386Y-5.3937
X1.3386Y-5.4937
X1.3386Y-5.5937
X1.3386Y-6.029
X1.3386Y-6.129
X1.3386Y-6.229
X1.3386Y-8.7849
X1.3386Y-8.8849
X1.4386Y-1.6142
X1.4386Y-1.7142
X1.4386Y-1.8142
X1.4386Y-1.9142
X1.4386Y-2.0142
X1.4386Y-2.1142
X1.4386Y-2.2142
X1.4386Y-2.3142
X1.4386Y-2.4142
X1.4386Y-2.5142
X1.4386Y-2.6142
X1.4386Y-2.7142
X1.4386Y-2.8142
X1.4386Y-2.9142
X1.4386Y-3.0142
X1.4386Y-3.1142
X1.4386Y-3.2142
X1.4386Y-3.3142
X1.4386Y-3.4142
X1.4386Y-3.5142
X2.4189Y-4.2077
X2.4189Y-4.3077
X2.4189Y-4.4077
X2.4189Y-4.5077
X2.4189Y-5.3937
X2.4189Y-5.4937
X2.4189Y-5.5937
X2.4189Y-8.7849
X2.4189Y-8.8849
X2.5919Y-8.1496
X2.5919Y-8.2496
X2.5919Y-8.3496
X2.5919Y-8.4496
X3.4993Y-5.3937
X3.4993Y-5.4937
X3.4993Y-5.5937
X3.4993Y-5.6937
X3.5391Y-1.6142
X3.5391Y-1.7142
X3.5391Y-1.8142
X3.5391Y-1.9142
X3.5391Y-2.0142
X3.5391Y-2.1142
X3.5391Y-2.2142
X3.5391Y-2.3142
X3.5391Y-2.4142
X3.5391Y-2.5142
X3.5391Y-2.6142
X3.5391Y-2.7142
X3.5391Y-2.8142
X3.5391Y-2.9142
X3.5391Y-3.0142
X3.5391Y-3.1142
X3.5391Y-3.2142
X3.5391Y-3.3142
X3.5391Y-3.4142
X3.5391Y-3.5142
X3.5391Y-3.6142
X3.5391Y-3.7142
X3.5391Y-3.8142
X3.5391Y-3.9142
X3.6391Y-1.6142
X3.6391Y-1.7142
X3.6391Y-1.8142
X3.6391Y-1.9142
X3.6391Y-2.0142
X3.6391Y-2.1142
X3.6391Y-2.2142
X3.6391Y-2.3142
X3.6391Y-2.4142
X3.6391Y-2.5142
X3.6391Y-2.6142
X3.6391Y-2.7142
X3.6391Y-2.8142
X3.6391Y-2.9142
X3.6391Y-3.0142
X3.6391Y-3.1142
X3.6391Y-3.2142
X3.6391Y-3.3142
X3.6391Y-3.4142
X3.6391Y-3.5142
X3.6391Y-3.6142
X3.6391Y-3.7142
X3.6391Y-3.8142
X3.6391Y-3.9142
X4.1259Y-8.7849
X4.1259Y-8.8849
X4.1259Y-8.9849
X5.921Y-1.6142
X5.921Y-1.7142
X5.921Y-1.8142
X5.921Y-1.9142
X7.6195Y-5.3937
X7.6195Y-5.4937
X7.6195Y-5.5937
T4
X2.3392Y-1.6142
X2.3392Y-1.7913
X2.5951Y-1.6142
X2.5951Y-1.7913
T5
X1.752Y-6.811
X2.6378Y-6.811
X3.8334Y-6.811
X4.0334Y-6.811
X4.2334Y-6.811
X4.4334Y-6.811
X4.5796Y-5.3937
X4.7796Y-5.3937
X4.9255Y-8.1496
X4.9796Y-5.3937
X5.1255Y-8.1496
X5.1796Y-5.3937
X5.3796Y-5.3937
X5.5796Y-5.3937
T6
X2.4424Y-7.4463
X3.0424Y-7.4463
T7
G00X0.0748Y-0.1909
M15
G01X0.2402Y-0.1909
M16
G05
G00X0.4551Y-0.1909
M15
G01X0.6205Y-0.1909
M16
G05
M30
