%TF.GenerationSoftware,KiCad,Pcbnew,9.0.9-9.0.9~ubuntu24.04.1*%
%TF.CreationDate,2026-05-31T22:25:00+03:00*%
%TF.ProjectId,autonomous_boat_system,6175746f-6e6f-46d6-9f75-735f626f6174,rev?*%
%TF.SameCoordinates,Original*%
%TF.FileFunction,Soldermask,Bot*%
%TF.FilePolarity,Negative*%
%FSLAX46Y46*%
G04 Gerber Fmt 4.6, Leading zero omitted, Abs format (unit mm)*
G04 Created by KiCad (PCBNEW 9.0.9-9.0.9~ubuntu24.04.1) date 2026-05-31 22:25:00*
%MOMM*%
%LPD*%
G01*
G04 APERTURE LIST*
G04 Aperture macros list*
%AMRoundRect*
0 Rectangle with rounded corners*
0 $1 Rounding radius*
0 $2 $3 $4 $5 $6 $7 $8 $9 X,Y pos of 4 corners*
0 Add a 4 corners polygon primitive as box body*
4,1,4,$2,$3,$4,$5,$6,$7,$8,$9,$2,$3,0*
0 Add four circle primitives for the rounded corners*
1,1,$1+$1,$2,$3*
1,1,$1+$1,$4,$5*
1,1,$1+$1,$6,$7*
1,1,$1+$1,$8,$9*
0 Add four rect primitives between the rounded corners*
20,1,$1+$1,$2,$3,$4,$5,0*
20,1,$1+$1,$4,$5,$6,$7,0*
20,1,$1+$1,$6,$7,$8,$9,0*
20,1,$1+$1,$8,$9,$2,$3,0*%
G04 Aperture macros list end*
%ADD10R,1.700000X1.700000*%
%ADD11C,1.700000*%
%ADD12RoundRect,0.250000X-1.350000X-1.350000X1.350000X-1.350000X1.350000X1.350000X-1.350000X1.350000X0*%
%ADD13C,3.200000*%
%ADD14RoundRect,0.250000X-1.050000X-1.050000X1.050000X-1.050000X1.050000X1.050000X-1.050000X1.050000X0*%
%ADD15C,2.600000*%
%ADD16C,2.000000*%
%ADD17C,2.700000*%
%ADD18C,3.000000*%
%ADD19C,1.524000*%
%ADD20O,8.000000X3.500000*%
G04 APERTURE END LIST*
D10*
%TO.C,U6*%
X61440500Y-106876500D03*
D11*
X61440500Y-109416500D03*
X61440500Y-111956500D03*
X61440500Y-114496500D03*
%TD*%
D10*
%TO.C,U4*%
X193535700Y-137000000D03*
D11*
X193535700Y-139540000D03*
X193535700Y-142080000D03*
%TD*%
D12*
%TO.C,U12*%
X62035700Y-189136500D03*
D13*
X77275700Y-189136500D03*
%TD*%
D10*
%TO.C,C4*%
X104797600Y-223136500D03*
D11*
X104797600Y-225676500D03*
X104797600Y-228216500D03*
%TD*%
D10*
%TO.C,U2*%
X88881000Y-137000000D03*
D11*
X88881000Y-139540000D03*
X88881000Y-142080000D03*
X88881000Y-144620000D03*
%TD*%
D14*
%TO.C,U14*%
X97369100Y-173000000D03*
D15*
X102449100Y-173000000D03*
X107529100Y-173000000D03*
X112609100Y-173000000D03*
%TD*%
D10*
%TO.C,U3*%
X34000000Y-153136500D03*
D11*
X34000000Y-155676500D03*
X34000000Y-158216500D03*
%TD*%
D16*
%TO.C,U11*%
X59416800Y-41000000D03*
X65916800Y-41000000D03*
X59416800Y-45500000D03*
X65916800Y-45500000D03*
%TD*%
D10*
%TO.C,U7*%
X34000000Y-106876500D03*
D11*
X34000000Y-109416500D03*
X34000000Y-111956500D03*
X34000000Y-114496500D03*
%TD*%
D10*
%TO.C,U21*%
X61440500Y-223136500D03*
D11*
X61440500Y-225676500D03*
%TD*%
D14*
%TO.C,U5*%
X116321400Y-137000000D03*
D15*
X121401400Y-137000000D03*
X126481400Y-137000000D03*
X131561400Y-137000000D03*
X136641400Y-137000000D03*
X141721400Y-137000000D03*
%TD*%
D10*
%TO.C,J3*%
X34000000Y-223136500D03*
D11*
X34000000Y-225676500D03*
%TD*%
D10*
%TO.C,C2*%
X61440500Y-137000000D03*
D11*
X61440500Y-139540000D03*
X61440500Y-142080000D03*
%TD*%
D14*
%TO.C,J2*%
X125107200Y-207000000D03*
D15*
X130187200Y-207000000D03*
%TD*%
D10*
%TO.C,C3*%
X150392900Y-41000000D03*
D11*
X150392900Y-43540000D03*
X150392900Y-46080000D03*
X150392900Y-48620000D03*
%TD*%
D17*
%TO.C,U15*%
X55750000Y-173000000D03*
D18*
X44500000Y-173000000D03*
X67000000Y-173000000D03*
%TD*%
D10*
%TO.C,S1*%
X89892900Y-41000000D03*
D11*
X92432900Y-41000000D03*
X89892900Y-43540000D03*
X92432900Y-43540000D03*
X89892900Y-46080000D03*
X92432900Y-46080000D03*
X89892900Y-48620000D03*
X92432900Y-48620000D03*
X89892900Y-51160000D03*
X92432900Y-51160000D03*
X89892900Y-53700000D03*
X92432900Y-53700000D03*
X89892900Y-56240000D03*
X92432900Y-56240000D03*
X89892900Y-58780000D03*
X92432900Y-58780000D03*
X89892900Y-61320000D03*
X92432900Y-61320000D03*
X89892900Y-63860000D03*
X92432900Y-63860000D03*
X89892900Y-66400000D03*
X92432900Y-66400000D03*
X89892900Y-68940000D03*
X92432900Y-68940000D03*
X89892900Y-71480000D03*
X92432900Y-71480000D03*
X89892900Y-74020000D03*
X92432900Y-74020000D03*
X89892900Y-76560000D03*
X92432900Y-76560000D03*
X89892900Y-79100000D03*
X92432900Y-79100000D03*
X89892900Y-81640000D03*
X92432900Y-81640000D03*
X89892900Y-84180000D03*
X92432900Y-84180000D03*
X89892900Y-86720000D03*
X92432900Y-86720000D03*
X89892900Y-89260000D03*
X92432900Y-89260000D03*
X89892900Y-91800000D03*
X92432900Y-91800000D03*
X89892900Y-94340000D03*
X92432900Y-94340000D03*
X89892900Y-96880000D03*
X92432900Y-96880000D03*
X89892900Y-99420000D03*
X92432900Y-99420000D03*
%TD*%
D10*
%TO.C,C1*%
X34000000Y-137000000D03*
D11*
X34000000Y-139540000D03*
X34000000Y-142080000D03*
%TD*%
D10*
%TO.C,U20*%
X65833300Y-207000000D03*
D11*
X65833300Y-209540000D03*
X65833300Y-212080000D03*
X65833300Y-214620000D03*
%TD*%
D10*
%TO.C,U10*%
X34000000Y-41000000D03*
D11*
X36540000Y-41000000D03*
X34000000Y-43540000D03*
X36540000Y-43540000D03*
X34000000Y-46080000D03*
X36540000Y-46080000D03*
X34000000Y-48620000D03*
X36540000Y-48620000D03*
X34000000Y-51160000D03*
X36540000Y-51160000D03*
X34000000Y-53700000D03*
X36540000Y-53700000D03*
X34000000Y-56240000D03*
X36540000Y-56240000D03*
X34000000Y-58780000D03*
X36540000Y-58780000D03*
X34000000Y-61320000D03*
X36540000Y-61320000D03*
X34000000Y-63860000D03*
X36540000Y-63860000D03*
X34000000Y-66400000D03*
X36540000Y-66400000D03*
X34000000Y-68940000D03*
X36540000Y-68940000D03*
X34000000Y-71480000D03*
X36540000Y-71480000D03*
X34000000Y-74020000D03*
X36540000Y-74020000D03*
X34000000Y-76560000D03*
X36540000Y-76560000D03*
X34000000Y-79100000D03*
X36540000Y-79100000D03*
X34000000Y-81640000D03*
X36540000Y-81640000D03*
X34000000Y-84180000D03*
X36540000Y-84180000D03*
X34000000Y-86720000D03*
X36540000Y-86720000D03*
X34000000Y-89260000D03*
X36540000Y-89260000D03*
%TD*%
D19*
%TO.C,U23*%
X6920000Y-26248200D03*
X8830000Y-26248200D03*
X10740000Y-26248200D03*
D20*
X13660000Y-4848200D03*
X4000000Y-4848200D03*
%TD*%
M02*
