%TF.GenerationSoftware,KiCad,Pcbnew,9.0.9-9.0.9~ubuntu24.04.1*%
%TF.CreationDate,2026-05-31T22:25:00+03:00*%
%TF.ProjectId,autonomous_boat_system,6175746f-6e6f-46d6-9f75-735f626f6174,rev?*%
%TF.SameCoordinates,Original*%
%TF.FileFunction,Paste,Top*%
%TF.FilePolarity,Positive*%
%FSLAX46Y46*%
G04 Gerber Fmt 4.6, Leading zero omitted, Abs format (unit mm)*
G04 Created by KiCad (PCBNEW 9.0.9-9.0.9~ubuntu24.04.1) date 2026-05-31 22:25:00*
%MOMM*%
%LPD*%
G01*
G04 APERTURE LIST*
G04 Aperture macros list*
%AMRoundRect*
0 Rectangle with rounded corners*
0 $1 Rounding radius*
0 $2 $3 $4 $5 $6 $7 $8 $9 X,Y pos of 4 corners*
0 Add a 4 corners polygon primitive as box body*
4,1,4,$2,$3,$4,$5,$6,$7,$8,$9,$2,$3,0*
0 Add four circle primitives for the rounded corners*
1,1,$1+$1,$2,$3*
1,1,$1+$1,$4,$5*
1,1,$1+$1,$6,$7*
1,1,$1+$1,$8,$9*
0 Add four rect primitives between the rounded corners*
20,1,$1+$1,$2,$3,$4,$5,0*
20,1,$1+$1,$4,$5,$6,$7,0*
20,1,$1+$1,$6,$7,$8,$9,0*
20,1,$1+$1,$8,$9,$2,$3,0*%
G04 Aperture macros list end*
%ADD10R,2.000000X0.800000*%
%ADD11RoundRect,0.200000X-0.200000X-0.275000X0.200000X-0.275000X0.200000X0.275000X-0.200000X0.275000X0*%
%ADD12RoundRect,0.150000X-0.512500X-0.150000X0.512500X-0.150000X0.512500X0.150000X-0.512500X0.150000X0*%
%ADD13RoundRect,0.250000X1.000000X-1.400000X1.000000X1.400000X-1.000000X1.400000X-1.000000X-1.400000X0*%
%ADD14RoundRect,0.250000X-1.275000X-1.125000X1.275000X-1.125000X1.275000X1.125000X-1.275000X1.125000X0*%
%ADD15RoundRect,0.250000X-0.850000X-0.350000X0.850000X-0.350000X0.850000X0.350000X-0.850000X0.350000X0*%
%ADD16RoundRect,0.100000X-0.637500X-0.100000X0.637500X-0.100000X0.637500X0.100000X-0.637500X0.100000X0*%
G04 APERTURE END LIST*
D10*
%TO.C,U8*%
X123433300Y-48000000D03*
X123433300Y-46900000D03*
X123433300Y-45800000D03*
X123433300Y-44700000D03*
X123433300Y-43600000D03*
X123433300Y-42500000D03*
X123433300Y-41400000D03*
X123433300Y-38400000D03*
X123433300Y-37300000D03*
X123433300Y-36200000D03*
X123433300Y-35100000D03*
X123433300Y-34000000D03*
X111233300Y-34000000D03*
X111233300Y-35100000D03*
X111233300Y-36200000D03*
X111233300Y-37300000D03*
X111233300Y-38400000D03*
X111233300Y-41400000D03*
X111233300Y-42500000D03*
X111233300Y-43600000D03*
X111233300Y-44700000D03*
X111233300Y-45800000D03*
X111233300Y-46900000D03*
X111233300Y-48000000D03*
%TD*%
D11*
%TO.C,R2*%
X88056000Y-223136500D03*
X89706000Y-223136500D03*
%TD*%
D12*
%TO.C,K1*%
X32862500Y-194879900D03*
X32862500Y-195829900D03*
X32862500Y-196779900D03*
X35137500Y-196779900D03*
X35137500Y-194879900D03*
%TD*%
D11*
%TO.C,R3*%
X92448800Y-207000000D03*
X94098800Y-207000000D03*
%TD*%
D13*
%TO.C,D1*%
X161914300Y-173000000D03*
X168714300Y-173000000D03*
%TD*%
D12*
%TO.C,U13*%
X51553000Y-194879900D03*
X51553000Y-195829900D03*
X51553000Y-196779900D03*
X53828000Y-196779900D03*
X53828000Y-194879900D03*
%TD*%
D14*
%TO.C,Q1*%
X149727900Y-171475000D03*
X149727900Y-174525000D03*
X153077900Y-171475000D03*
X153077900Y-174525000D03*
D15*
X145102900Y-170720000D03*
X145102900Y-175280000D03*
%TD*%
D11*
%TO.C,U18*%
X105282100Y-189136500D03*
X106932100Y-189136500D03*
%TD*%
%TO.C,U17*%
X89365500Y-189136500D03*
X91015500Y-189136500D03*
%TD*%
%TO.C,U22*%
X33175000Y-207000000D03*
X34825000Y-207000000D03*
%TD*%
D12*
%TO.C,U16*%
X42207700Y-188186500D03*
X42207700Y-189136500D03*
X42207700Y-190086500D03*
X44482700Y-190086500D03*
X44482700Y-188186500D03*
%TD*%
D11*
%TO.C,R4*%
X108365500Y-207000000D03*
X110015500Y-207000000D03*
%TD*%
%TO.C,R1*%
X49091700Y-207000000D03*
X50741700Y-207000000D03*
%TD*%
D16*
%TO.C,U1*%
X166232700Y-135050000D03*
X166232700Y-135700000D03*
X166232700Y-136350000D03*
X166232700Y-137000000D03*
X166232700Y-137650000D03*
X166232700Y-138300000D03*
X166232700Y-138950000D03*
X171957700Y-138950000D03*
X171957700Y-138300000D03*
X171957700Y-137650000D03*
X171957700Y-137000000D03*
X171957700Y-136350000D03*
X171957700Y-135700000D03*
X171957700Y-135050000D03*
%TD*%
D11*
%TO.C,U9*%
X73151200Y-41000000D03*
X74801200Y-41000000D03*
%TD*%
M02*
