%TF.GenerationSoftware,KiCad,Pcbnew,9.0.9-9.0.9~ubuntu24.04.1*%
%TF.CreationDate,2026-05-31T22:25:00+03:00*%
%TF.ProjectId,autonomous_boat_system,6175746f-6e6f-46d6-9f75-735f626f6174,rev?*%
%TF.SameCoordinates,Original*%
%TF.FileFunction,Copper,L2,Bot*%
%TF.FilePolarity,Positive*%
%FSLAX46Y46*%
G04 Gerber Fmt 4.6, Leading zero omitted, Abs format (unit mm)*
G04 Created by KiCad (PCBNEW 9.0.9-9.0.9~ubuntu24.04.1) date 2026-05-31 22:25:00*
%MOMM*%
%LPD*%
G01*
G04 APERTURE LIST*
G04 Aperture macros list*
%AMRoundRect*
0 Rectangle with rounded corners*
0 $1 Rounding radius*
0 $2 $3 $4 $5 $6 $7 $8 $9 X,Y pos of 4 corners*
0 Add a 4 corners polygon primitive as box body*
4,1,4,$2,$3,$4,$5,$6,$7,$8,$9,$2,$3,0*
0 Add four circle primitives for the rounded corners*
1,1,$1+$1,$2,$3*
1,1,$1+$1,$4,$5*
1,1,$1+$1,$6,$7*
1,1,$1+$1,$8,$9*
0 Add four rect primitives between the rounded corners*
20,1,$1+$1,$2,$3,$4,$5,0*
20,1,$1+$1,$4,$5,$6,$7,0*
20,1,$1+$1,$6,$7,$8,$9,0*
20,1,$1+$1,$8,$9,$2,$3,0*%
G04 Aperture macros list end*
%TA.AperFunction,ComponentPad*%
%ADD10R,1.700000X1.700000*%
%TD*%
%TA.AperFunction,ComponentPad*%
%ADD11C,1.700000*%
%TD*%
%TA.AperFunction,ComponentPad*%
%ADD12RoundRect,0.250000X-1.350000X-1.350000X1.350000X-1.350000X1.350000X1.350000X-1.350000X1.350000X0*%
%TD*%
%TA.AperFunction,ComponentPad*%
%ADD13C,3.200000*%
%TD*%
%TA.AperFunction,ComponentPad*%
%ADD14RoundRect,0.250000X-1.050000X-1.050000X1.050000X-1.050000X1.050000X1.050000X-1.050000X1.050000X0*%
%TD*%
%TA.AperFunction,ComponentPad*%
%ADD15C,2.600000*%
%TD*%
%TA.AperFunction,ComponentPad*%
%ADD16C,2.000000*%
%TD*%
%TA.AperFunction,ComponentPad*%
%ADD17C,3.000000*%
%TD*%
%TA.AperFunction,ComponentPad*%
%ADD18C,1.524000*%
%TD*%
%TA.AperFunction,ComponentPad*%
%ADD19O,8.000000X3.500000*%
%TD*%
%TA.AperFunction,ViaPad*%
%ADD20C,0.600000*%
%TD*%
%TA.AperFunction,Conductor*%
%ADD21C,0.200000*%
%TD*%
G04 APERTURE END LIST*
D10*
%TO.P,U6,1*%
%TO.N,5V_LOGIC*%
X61440500Y-106876500D03*
D11*
%TO.P,U6,2*%
%TO.N,GND*%
X61440500Y-109416500D03*
%TO.P,U6,3*%
%TO.N,RC_UART_TX*%
X61440500Y-111956500D03*
%TO.P,U6,4*%
%TO.N,RC_UART_RX*%
X61440500Y-114496500D03*
%TD*%
D10*
%TO.P,U4,1*%
%TO.N,5V_LOGIC*%
X193535700Y-137000000D03*
D11*
%TO.P,U4,2*%
%TO.N,GND*%
X193535700Y-139540000D03*
%TO.P,U4,3*%
%TO.N,LIMIT_TOP_SIG*%
X193535700Y-142080000D03*
%TD*%
D12*
%TO.P,U12,1*%
%TO.N,VBAT_SWITCHED*%
X62035700Y-189136500D03*
D13*
%TO.P,U12,2*%
%TO.N,GND_TRACTION*%
X77275700Y-189136500D03*
%TD*%
D10*
%TO.P,C4,1*%
%TO.N,5V_LOGIC*%
X104797600Y-223136500D03*
D11*
%TO.P,C4,2*%
%TO.N,GND_LOGIC*%
X104797600Y-225676500D03*
%TO.P,C4,3*%
%TO.N,STATUS_LED_DATA*%
X104797600Y-228216500D03*
%TD*%
D10*
%TO.P,U2,1*%
%TO.N,VBAT_SWITCHED*%
X88881000Y-137000000D03*
D11*
%TO.P,U2,2*%
%TO.N,GND_TRACTION*%
X88881000Y-139540000D03*
%TO.P,U2,3*%
%TO.N,_4*%
X88881000Y-142080000D03*
%TO.P,U2,4*%
%TO.N,_5*%
X88881000Y-144620000D03*
%TD*%
D14*
%TO.P,U14,1*%
%TO.N,IP_NEG*%
X97369100Y-173000000D03*
D15*
%TO.P,U14,2*%
%TO.N,VBAT_SWITCHED*%
X102449100Y-173000000D03*
%TO.P,U14,3*%
%TO.N,IP_POS*%
X107529100Y-173000000D03*
%TO.P,U14,4*%
%TO.N,_1*%
X112609100Y-173000000D03*
%TD*%
D10*
%TO.P,U3,1*%
%TO.N,5V_LOGIC*%
X34000000Y-153136500D03*
D11*
%TO.P,U3,2*%
%TO.N,GND*%
X34000000Y-155676500D03*
%TO.P,U3,3*%
%TO.N,LIMIT_BOT_SIG*%
X34000000Y-158216500D03*
%TD*%
D16*
%TO.P,U11,1*%
%TO.N,SHUTDOWN_SIGNAL*%
X59416800Y-41000000D03*
%TO.N,N/C*%
X65916800Y-41000000D03*
%TO.P,U11,2*%
%TO.N,GND*%
X59416800Y-45500000D03*
%TO.N,N/C*%
X65916800Y-45500000D03*
%TD*%
D10*
%TO.P,U7,1*%
%TO.N,5V_RPI*%
X34000000Y-106876500D03*
D11*
%TO.P,U7,2*%
%TO.N,GND*%
X34000000Y-109416500D03*
%TO.P,U7,3*%
%TO.N,NC*%
X34000000Y-111956500D03*
%TO.P,U7,4*%
X34000000Y-114496500D03*
%TD*%
D10*
%TO.P,U21,1*%
%TO.N,GND_LOGIC*%
X61440500Y-223136500D03*
D11*
%TO.P,U21,2*%
%TO.N,LEAK_DETECT_SIG*%
X61440500Y-225676500D03*
%TD*%
D14*
%TO.P,U5,1*%
%TO.N,VBAT_SWITCHED*%
X116321400Y-137000000D03*
D15*
%TO.P,U5,2*%
%TO.N,GND_TRACTION*%
X121401400Y-137000000D03*
%TO.P,U5,3*%
%TO.N,TB6600_PUL_5V*%
X126481400Y-137000000D03*
%TO.P,U5,4*%
%TO.N,TB6600_DIR_5V*%
X131561400Y-137000000D03*
%TO.P,U5,5*%
%TO.N,TB6600_ENA_5V*%
X136641400Y-137000000D03*
%TO.P,U5,6*%
%TO.N,NC*%
X141721400Y-137000000D03*
%TD*%
D10*
%TO.P,J3,1*%
%TO.N,5V_LOGIC*%
X34000000Y-223136500D03*
D11*
%TO.P,J3,2*%
%TO.N,GND_LOGIC*%
X34000000Y-225676500D03*
%TD*%
D10*
%TO.P,C2,1*%
%TO.N,VBAT_SWITCHED*%
X61440500Y-137000000D03*
D11*
%TO.P,C2,2*%
%TO.N,GND_TRACTION*%
X61440500Y-139540000D03*
%TO.P,C2,3*%
%TO.N,_3*%
X61440500Y-142080000D03*
%TD*%
D14*
%TO.P,J2,1*%
%TO.N,5V_LOGIC*%
X125107200Y-207000000D03*
D15*
%TO.P,J2,2*%
%TO.N,GND_LOGIC*%
X130187200Y-207000000D03*
%TD*%
D10*
%TO.P,C3,1*%
%TO.N,5V_RPI*%
X150392900Y-41000000D03*
D11*
%TO.P,C3,2*%
%TO.N,GND*%
X150392900Y-43540000D03*
%TO.P,C3,3*%
%TO.N,_8*%
X150392900Y-46080000D03*
%TO.P,C3,4*%
%TO.N,_9*%
X150392900Y-48620000D03*
%TD*%
D17*
%TO.P,U15,1*%
%TO.N,VBAT_14.8V*%
X44500000Y-173000000D03*
%TO.P,U15,2*%
%TO.N,IP_POS*%
X67000000Y-173000000D03*
%TD*%
D10*
%TO.P,S1,1*%
%TO.N,_2*%
X89892900Y-41000000D03*
D11*
%TO.P,S1,2*%
%TO.N,_3*%
X92432900Y-41000000D03*
%TO.P,S1,3*%
%TO.N,TEENSY_PUL_3V3*%
X89892900Y-43540000D03*
%TO.P,S1,4*%
%TO.N,TEENSY_DIR_3V3*%
X92432900Y-43540000D03*
%TO.P,S1,5*%
%TO.N,TEENSY_ENA_3V3*%
X89892900Y-46080000D03*
%TO.P,S1,6*%
%TO.N,_4*%
X92432900Y-46080000D03*
%TO.P,S1,7*%
%TO.N,_5*%
X89892900Y-48620000D03*
%TO.P,S1,8*%
%TO.N,VOUT*%
X92432900Y-48620000D03*
%TO.P,S1,9*%
%TO.N,I2C_SCL*%
X89892900Y-51160000D03*
%TO.P,S1,10*%
%TO.N,I2C_SDA*%
X92432900Y-51160000D03*
%TO.P,S1,11*%
%TO.N,NC*%
X89892900Y-53700000D03*
%TO.P,S1,12*%
X92432900Y-53700000D03*
%TO.P,S1,13*%
%TO.N,KILL_SWITCH_LOGIC_3V3*%
X89892900Y-56240000D03*
%TO.P,S1,14*%
%TO.N,RC_UART_TX*%
X92432900Y-56240000D03*
%TO.P,S1,15*%
%TO.N,RC_UART_RX*%
X89892900Y-58780000D03*
%TO.P,S1,16*%
%TO.N,LIMIT_TOP_SIG*%
X92432900Y-58780000D03*
%TO.P,S1,17*%
%TO.N,LIMIT_BOT_SIG*%
X89892900Y-61320000D03*
%TO.P,S1,18*%
%TO.N,LEAK_DETECT_SIG*%
X92432900Y-61320000D03*
%TO.P,S1,19*%
%TO.N,STATUS_LED_DATA*%
X89892900Y-63860000D03*
%TO.P,S1,20*%
%TO.N,AUGER_TEMP_ANALOG*%
X92432900Y-63860000D03*
%TO.P,S1,21*%
%TO.N,_10*%
X89892900Y-66400000D03*
%TO.P,S1,22*%
%TO.N,_11*%
X92432900Y-66400000D03*
%TO.P,S1,23*%
%TO.N,VBAT_SENSE_3V3*%
X89892900Y-68940000D03*
%TO.P,S1,24*%
%TO.N,5V_LOGIC*%
X92432900Y-68940000D03*
%TO.P,S1,25*%
%TO.N,NC*%
X89892900Y-71480000D03*
%TO.P,S1,26*%
X92432900Y-71480000D03*
%TO.P,S1,27*%
X89892900Y-74020000D03*
%TO.P,S1,28*%
%TO.N,_6*%
X92432900Y-74020000D03*
%TO.P,S1,29*%
%TO.N,_7*%
X89892900Y-76560000D03*
%TO.P,S1,30*%
%TO.N,NC*%
X92432900Y-76560000D03*
%TO.P,S1,31*%
X89892900Y-79100000D03*
%TO.P,S1,32*%
X92432900Y-79100000D03*
%TO.P,S1,33*%
X89892900Y-81640000D03*
%TO.P,S1,34*%
X92432900Y-81640000D03*
%TO.P,S1,35*%
X89892900Y-84180000D03*
%TO.P,S1,36*%
X92432900Y-84180000D03*
%TO.P,S1,37*%
X89892900Y-86720000D03*
%TO.P,S1,38*%
X92432900Y-86720000D03*
%TO.P,S1,39*%
X89892900Y-89260000D03*
%TO.P,S1,40*%
X92432900Y-89260000D03*
%TO.P,S1,41*%
X89892900Y-91800000D03*
%TO.P,S1,42*%
X92432900Y-91800000D03*
%TO.P,S1,43*%
X89892900Y-94340000D03*
%TO.P,S1,44*%
X92432900Y-94340000D03*
%TO.P,S1,45*%
X89892900Y-96880000D03*
%TO.P,S1,46*%
X92432900Y-96880000D03*
%TO.P,S1,47*%
X89892900Y-99420000D03*
%TO.P,S1,48*%
%TO.N,GND*%
X92432900Y-99420000D03*
%TD*%
D10*
%TO.P,C1,1*%
%TO.N,VBAT_SWITCHED*%
X34000000Y-137000000D03*
D11*
%TO.P,C1,2*%
%TO.N,GND_TRACTION*%
X34000000Y-139540000D03*
%TO.P,C1,3*%
%TO.N,_2*%
X34000000Y-142080000D03*
%TD*%
D10*
%TO.P,U20,1*%
%TO.N,3V3_ANALOG*%
X65833300Y-207000000D03*
D11*
%TO.P,U20,2*%
%TO.N,GND_LOGIC*%
X65833300Y-209540000D03*
%TO.P,U20,3*%
%TO.N,I2C_SCL*%
X65833300Y-212080000D03*
%TO.P,U20,4*%
%TO.N,I2C_SDA*%
X65833300Y-214620000D03*
%TD*%
D10*
%TO.P,U10,1*%
%TO.N,NC*%
X34000000Y-41000000D03*
D11*
%TO.P,U10,2*%
%TO.N,5V_RPI*%
X36540000Y-41000000D03*
%TO.P,U10,3*%
%TO.N,NC*%
X34000000Y-43540000D03*
%TO.P,U10,4*%
%TO.N,5V_RPI*%
X36540000Y-43540000D03*
%TO.P,U10,5*%
%TO.N,NC*%
X34000000Y-46080000D03*
%TO.P,U10,6*%
%TO.N,GND*%
X36540000Y-46080000D03*
%TO.P,U10,7*%
%TO.N,NC*%
X34000000Y-48620000D03*
%TO.P,U10,8*%
%TO.N,_10*%
X36540000Y-48620000D03*
%TO.P,U10,9*%
%TO.N,NC*%
X34000000Y-51160000D03*
%TO.P,U10,10*%
%TO.N,_11*%
X36540000Y-51160000D03*
%TO.P,U10,11*%
%TO.N,NC*%
X34000000Y-53700000D03*
%TO.P,U10,12*%
X36540000Y-53700000D03*
%TO.P,U10,13*%
X34000000Y-56240000D03*
%TO.P,U10,14*%
X36540000Y-56240000D03*
%TO.P,U10,15*%
X34000000Y-58780000D03*
%TO.P,U10,16*%
X36540000Y-58780000D03*
%TO.P,U10,17*%
X34000000Y-61320000D03*
%TO.P,U10,18*%
X36540000Y-61320000D03*
%TO.P,U10,19*%
X34000000Y-63860000D03*
%TO.P,U10,20*%
X36540000Y-63860000D03*
%TO.P,U10,21*%
X34000000Y-66400000D03*
%TO.P,U10,22*%
X36540000Y-66400000D03*
%TO.P,U10,23*%
X34000000Y-68940000D03*
%TO.P,U10,24*%
X36540000Y-68940000D03*
%TO.P,U10,25*%
X34000000Y-71480000D03*
%TO.P,U10,26*%
X36540000Y-71480000D03*
%TO.P,U10,27*%
X34000000Y-74020000D03*
%TO.P,U10,28*%
X36540000Y-74020000D03*
%TO.P,U10,29*%
X34000000Y-76560000D03*
%TO.P,U10,30*%
X36540000Y-76560000D03*
%TO.P,U10,31*%
X34000000Y-79100000D03*
%TO.P,U10,32*%
X36540000Y-79100000D03*
%TO.P,U10,33*%
X34000000Y-81640000D03*
%TO.P,U10,34*%
X36540000Y-81640000D03*
%TO.P,U10,35*%
X34000000Y-84180000D03*
%TO.P,U10,36*%
X36540000Y-84180000D03*
%TO.P,U10,37*%
%TO.N,_8*%
X34000000Y-86720000D03*
%TO.P,U10,38*%
%TO.N,_9*%
X36540000Y-86720000D03*
%TO.P,U10,39*%
%TO.N,NC*%
X34000000Y-89260000D03*
%TO.P,U10,40*%
X36540000Y-89260000D03*
%TD*%
D18*
%TO.P,U23,1*%
%TO.N,VCC*%
X6920000Y-26248200D03*
%TO.P,U23,2*%
%TO.N,GND*%
X8830000Y-26248200D03*
%TO.P,U23,3*%
%TO.N,VOUT*%
X10740000Y-26248200D03*
D19*
%TO.P,U23,4*%
%TO.N,IP_POS*%
X13660000Y-4848200D03*
%TO.P,U23,5*%
%TO.N,IP_NEG*%
X4000000Y-4848200D03*
%TD*%
D20*
%TO.N,3V3_ANALOG*%
X90839000Y-207000000D03*
X90839000Y-222900100D03*
%TO.N,GND_LOGIC*%
X130187200Y-221875400D03*
%TO.N,TB6600_ENA_5V*%
X136641400Y-141478100D03*
%TO.N,TB6600_DIR_5V*%
X131561400Y-139417900D03*
%TO.N,_7*%
X106080500Y-77750500D03*
X106080500Y-44700000D03*
%TO.N,_6*%
X93152400Y-52381500D03*
%TO.N,AUGER_TEMP_ANALOG*%
X95229900Y-205654500D03*
X95211800Y-63648400D03*
%TO.N,STATUS_LED_DATA*%
X95763600Y-65130000D03*
%TO.N,LEAK_DETECT_SIG*%
X87147100Y-222872600D03*
%TO.N,LIMIT_BOT_SIG*%
X87148600Y-158216500D03*
%TO.N,LIMIT_TOP_SIG*%
X194687400Y-69915800D03*
%TO.N,RC_UART_RX*%
X87045500Y-114496500D03*
%TO.N,RC_UART_TX*%
X82059000Y-57510000D03*
%TO.N,I2C_SDA*%
X95011700Y-208416700D03*
%TO.N,VOUT*%
X10740000Y-47450900D03*
%TO.N,_4*%
X97233300Y-141426200D03*
%TO.N,TEENSY_ENA_3V3*%
X96498500Y-135120100D03*
%TO.N,TEENSY_DIR_3V3*%
X164949900Y-137650000D03*
X164949900Y-39848300D03*
%TO.N,TEENSY_PUL_3V3*%
X102086500Y-133923000D03*
%TO.N,_2*%
X46260500Y-42524800D03*
X46260500Y-141426200D03*
%TO.N,_9*%
X147954500Y-82910000D03*
%TO.N,_8*%
X138981500Y-87910500D03*
%TO.N,VBAT_SENSE_3V3*%
X90688100Y-188135300D03*
%TO.N,VCC*%
X53451500Y-194074200D03*
X52242500Y-39183100D03*
%TO.N,NC*%
X93766400Y-132487400D03*
X42654300Y-197457600D03*
%TO.N,5V_LOGIC*%
X61440500Y-70227700D03*
X34767300Y-192203600D03*
X133206000Y-133714900D03*
X33778000Y-150365000D03*
X55233500Y-150365000D03*
%TO.N,5V_RPI*%
X31744000Y-197612600D03*
%TO.N,KILL_SWITCH_LOGIC_3V3*%
X90086400Y-165263000D03*
%TO.N,IP_NEG*%
X4000000Y-170333200D03*
%TO.N,IP_POS*%
X88134500Y-174796500D03*
X88134500Y-189099800D03*
X17961700Y-194879900D03*
%TO.N,GND*%
X32784000Y-171222200D03*
X159942500Y-135050000D03*
X159918500Y-99711800D03*
X9756500Y-44810000D03*
X35094300Y-195704400D03*
%TO.N,GND_TRACTION*%
X76170500Y-141426200D03*
X127017500Y-175280000D03*
X37287500Y-190265400D03*
X37287500Y-174201800D03*
%TD*%
D21*
%TO.N,3V3_ANALOG*%
X90839000Y-207000000D02*
X90839000Y-222900100D01*
%TO.N,GND_LOGIC*%
X61440500Y-213932800D02*
X65833300Y-209540000D01*
X61440500Y-223136500D02*
X61440500Y-213932800D01*
X130187200Y-207000000D02*
X130187200Y-221875400D01*
%TO.N,TB6600_ENA_5V*%
X136641400Y-137000000D02*
X136641400Y-141478100D01*
%TO.N,TB6600_DIR_5V*%
X131561400Y-137000000D02*
X131561400Y-139417900D01*
%TO.N,_7*%
X106080500Y-44700000D02*
X106080500Y-77750500D01*
%TO.N,_6*%
X94066400Y-72386500D02*
X92432900Y-74020000D01*
X94066400Y-53295500D02*
X94066400Y-72386500D01*
X93152400Y-52381500D02*
X94066400Y-53295500D01*
%TO.N,AUGER_TEMP_ANALOG*%
X95155500Y-63704700D02*
X95211800Y-63648400D01*
X95155500Y-205580100D02*
X95155500Y-63704700D01*
X95229900Y-205654500D02*
X95155500Y-205580100D01*
%TO.N,STATUS_LED_DATA*%
X95763600Y-205337300D02*
X95763600Y-65130000D01*
X95963600Y-205537300D02*
X95763600Y-205337300D01*
X95963600Y-219382500D02*
X95963600Y-205537300D01*
X104797600Y-228216500D02*
X95963600Y-219382500D01*
%TO.N,LEAK_DETECT_SIG*%
X87147100Y-204344900D02*
X87147100Y-222872600D01*
X91292900Y-200199100D02*
X87147100Y-204344900D01*
X91292900Y-102768500D02*
X91292900Y-200199100D01*
X88694400Y-100170000D02*
X91292900Y-102768500D01*
X88694400Y-76087700D02*
X88694400Y-100170000D01*
X89492100Y-75290000D02*
X88694400Y-76087700D01*
X90290000Y-75290000D02*
X89492100Y-75290000D01*
X91046900Y-74533100D02*
X90290000Y-75290000D01*
X91046900Y-62706000D02*
X91046900Y-74533100D01*
X92432900Y-61320000D02*
X91046900Y-62706000D01*
%TO.N,LIMIT_BOT_SIG*%
X87148600Y-116939000D02*
X87148600Y-158216500D01*
X87841000Y-116246600D02*
X87148600Y-116939000D01*
X87841000Y-101220800D02*
X87841000Y-116246600D01*
X87489300Y-100869100D02*
X87841000Y-101220800D01*
X87489300Y-63723600D02*
X87489300Y-100869100D01*
X89892900Y-61320000D02*
X87489300Y-63723600D01*
%TO.N,LIMIT_TOP_SIG*%
X194687400Y-140928300D02*
X194687400Y-69915800D01*
X193535700Y-142080000D02*
X194687400Y-140928300D01*
%TO.N,RC_UART_RX*%
X87045500Y-61627400D02*
X87045500Y-114496500D01*
X89892900Y-58780000D02*
X87045500Y-61627400D01*
%TO.N,RC_UART_TX*%
X82059000Y-91338000D02*
X82059000Y-57510000D01*
X61440500Y-111956500D02*
X82059000Y-91338000D01*
%TO.N,I2C_SDA*%
X94610000Y-208015000D02*
X95011700Y-208416700D01*
X94610000Y-52938000D02*
X94610000Y-208015000D01*
X92832000Y-51160000D02*
X94610000Y-52938000D01*
X92432900Y-51160000D02*
X92832000Y-51160000D01*
%TO.N,I2C_SCL*%
X89892900Y-51728000D02*
X89892900Y-51160000D01*
X86020700Y-55600200D02*
X89892900Y-51728000D01*
X86020700Y-191892600D02*
X86020700Y-55600200D01*
X65833300Y-212080000D02*
X86020700Y-191892600D01*
%TO.N,VOUT*%
X10740000Y-26248200D02*
X10740000Y-47450900D01*
%TO.N,_5*%
X90091100Y-143409900D02*
X88881000Y-144620000D01*
X90091100Y-133951300D02*
X90091100Y-143409900D01*
X88242700Y-132102900D02*
X90091100Y-133951300D01*
X88242700Y-101054500D02*
X88242700Y-132102900D01*
X87891000Y-100702800D02*
X88242700Y-101054500D01*
X87891000Y-64233200D02*
X87891000Y-100702800D01*
X89534200Y-62590000D02*
X87891000Y-64233200D01*
X90288600Y-62590000D02*
X89534200Y-62590000D01*
X91053600Y-61825000D02*
X90288600Y-62590000D01*
X91053600Y-49780700D02*
X91053600Y-61825000D01*
X89892900Y-48620000D02*
X91053600Y-49780700D01*
%TO.N,_4*%
X97233300Y-50880400D02*
X97233300Y-141426200D01*
X92432900Y-46080000D02*
X97233300Y-50880400D01*
%TO.N,TEENSY_ENA_3V3*%
X96498500Y-53545900D02*
X96498500Y-135120100D01*
X92724300Y-49771700D02*
X96498500Y-53545900D01*
X91952200Y-49771700D02*
X92724300Y-49771700D01*
X91162900Y-48982400D02*
X91952200Y-49771700D01*
X91162900Y-47350000D02*
X91162900Y-48982400D01*
X89892900Y-46080000D02*
X91162900Y-47350000D01*
%TO.N,TEENSY_DIR_3V3*%
X164949900Y-39848300D02*
X164949900Y-137650000D01*
%TO.N,TEENSY_PUL_3V3*%
X102086400Y-133923000D02*
X102086500Y-133923000D01*
X102086400Y-54020000D02*
X102086400Y-133923000D01*
X92876400Y-44810000D02*
X102086400Y-54020000D01*
X91162900Y-44810000D02*
X92876400Y-44810000D01*
X89892900Y-43540000D02*
X91162900Y-44810000D01*
%TO.N,_3*%
X82660600Y-120859900D02*
X61440500Y-142080000D01*
X82660600Y-58275500D02*
X82660600Y-120859900D01*
X85977900Y-54958200D02*
X82660600Y-58275500D01*
X85977900Y-45788100D02*
X85977900Y-54958200D01*
X89496000Y-42270000D02*
X85977900Y-45788100D01*
X91162900Y-42270000D02*
X89496000Y-42270000D01*
X92432900Y-41000000D02*
X91162900Y-42270000D01*
%TO.N,_2*%
X46260500Y-42524800D02*
X46260500Y-141426200D01*
%TO.N,_9*%
X147954500Y-51058400D02*
X147954500Y-82910000D01*
X150392900Y-48620000D02*
X147954500Y-51058400D01*
%TO.N,_8*%
X138981500Y-57491400D02*
X138981500Y-87910500D01*
X150392900Y-46080000D02*
X138981500Y-57491400D01*
%TO.N,VBAT_SENSE_3V3*%
X88292700Y-70540200D02*
X89892900Y-68940000D01*
X88292700Y-100536500D02*
X88292700Y-70540200D01*
X90688100Y-102931900D02*
X88292700Y-100536500D01*
X90688100Y-188135300D02*
X90688100Y-102931900D01*
%TO.N,VCC*%
X53451500Y-40392100D02*
X52242500Y-39183100D01*
X53451500Y-194074200D02*
X53451500Y-40392100D01*
%TO.N,NC*%
X34000000Y-84180000D02*
X34000000Y-81640000D01*
X34000000Y-81640000D02*
X34000000Y-79100000D01*
X36540000Y-79100000D02*
X36540000Y-76560000D01*
X34000000Y-79100000D02*
X34000000Y-76560000D01*
X36540000Y-76560000D02*
X36540000Y-74020000D01*
X34000000Y-76560000D02*
X34000000Y-74020000D01*
X36540000Y-74020000D02*
X36540000Y-71480000D01*
X34000000Y-74020000D02*
X34000000Y-71480000D01*
X36540000Y-71480000D02*
X36540000Y-68940000D01*
X34000000Y-71480000D02*
X34000000Y-68940000D01*
X36540000Y-68940000D02*
X36540000Y-66400000D01*
X34000000Y-68940000D02*
X34000000Y-66400000D01*
X36540000Y-66400000D02*
X36540000Y-63860000D01*
X34000000Y-66400000D02*
X34000000Y-63860000D01*
X36540000Y-63860000D02*
X36540000Y-61320000D01*
X34000000Y-63860000D02*
X34000000Y-61320000D01*
X36540000Y-61320000D02*
X36540000Y-58780000D01*
X34000000Y-61320000D02*
X34000000Y-58780000D01*
X36540000Y-58780000D02*
X36540000Y-56240000D01*
X34000000Y-58780000D02*
X34000000Y-56240000D01*
X36540000Y-56240000D02*
X36540000Y-53700000D01*
X34000000Y-56240000D02*
X34000000Y-53700000D01*
X34000000Y-53700000D02*
X34000000Y-51160000D01*
X34000000Y-51160000D02*
X34000000Y-48620000D01*
X34000000Y-48620000D02*
X34000000Y-46080000D01*
X34000000Y-46080000D02*
X34000000Y-43540000D01*
X34000000Y-43540000D02*
X34000000Y-41000000D01*
X37756100Y-88043900D02*
X36540000Y-89260000D01*
X37756100Y-85396100D02*
X37756100Y-88043900D01*
X36540000Y-84180000D02*
X37756100Y-85396100D01*
X89892900Y-99420000D02*
X89892900Y-96880000D01*
X92432900Y-96880000D02*
X92432900Y-94340000D01*
X89892900Y-96880000D02*
X89892900Y-94340000D01*
X92432900Y-94340000D02*
X92432900Y-91800000D01*
X89892900Y-94340000D02*
X89892900Y-91800000D01*
X92432900Y-91800000D02*
X92432900Y-89260000D01*
X89892900Y-91800000D02*
X89892900Y-89260000D01*
X92432900Y-89260000D02*
X92432900Y-86720000D01*
X89892900Y-89260000D02*
X89892900Y-86720000D01*
X89892900Y-86720000D02*
X89892900Y-84180000D01*
X89892900Y-84180000D02*
X89892900Y-81640000D01*
X89892900Y-81640000D02*
X89892900Y-79100000D01*
X92432900Y-79100000D02*
X92432900Y-76560000D01*
X89892900Y-74020000D02*
X89892900Y-71480000D01*
X34000000Y-114496500D02*
X34000000Y-111956500D01*
X36540000Y-109416500D02*
X36540000Y-89260000D01*
X34000000Y-111956500D02*
X36540000Y-109416500D01*
X93644700Y-70268200D02*
X92432900Y-71480000D01*
X93644700Y-54911800D02*
X93644700Y-70268200D01*
X92432900Y-53700000D02*
X93644700Y-54911800D01*
X93766400Y-103293500D02*
X93766400Y-132487400D01*
X89892900Y-99420000D02*
X93766400Y-103293500D01*
X42654300Y-123150800D02*
X42654300Y-197457600D01*
X34000000Y-114496500D02*
X42654300Y-123150800D01*
%TO.N,5V_LOGIC*%
X61440500Y-106876500D02*
X61440500Y-70227700D01*
X34000000Y-223136500D02*
X34000000Y-221984800D01*
X34000000Y-153136500D02*
X34000000Y-154288200D01*
X34000000Y-153136500D02*
X34000000Y-151984800D01*
X133206000Y-198901200D02*
X133206000Y-133714900D01*
X125107200Y-207000000D02*
X133206000Y-198901200D01*
X55233500Y-116440500D02*
X55233500Y-150365000D01*
X60987500Y-110686500D02*
X55233500Y-116440500D01*
X61884000Y-110686500D02*
X60987500Y-110686500D01*
X62626400Y-109944100D02*
X61884000Y-110686500D01*
X62626400Y-108926200D02*
X62626400Y-109944100D01*
X61728400Y-108028200D02*
X62626400Y-108926200D01*
X61440500Y-108028200D02*
X61728400Y-108028200D01*
X33778000Y-151762800D02*
X33778000Y-150365000D01*
X34000000Y-151984800D02*
X33778000Y-151762800D01*
X61440500Y-106876500D02*
X61440500Y-108028200D01*
X34296500Y-192203600D02*
X34767300Y-192203600D01*
X34296500Y-221688300D02*
X34296500Y-192203600D01*
X34000000Y-221984800D02*
X34296500Y-221688300D01*
X33712000Y-154288200D02*
X34000000Y-154288200D01*
X32172600Y-155827600D02*
X33712000Y-154288200D01*
X32172600Y-190079700D02*
X32172600Y-155827600D01*
X34296500Y-192203600D02*
X32172600Y-190079700D01*
%TO.N,5V_RPI*%
X36540000Y-43540000D02*
X36540000Y-41000000D01*
X35151700Y-104573100D02*
X34000000Y-105724800D01*
X35151700Y-44928300D02*
X35151700Y-104573100D01*
X36540000Y-43540000D02*
X35151700Y-44928300D01*
X34000000Y-106876500D02*
X34000000Y-105724800D01*
X34000000Y-106876500D02*
X34000000Y-108028200D01*
X31744000Y-109996300D02*
X31744000Y-197612600D01*
X33712100Y-108028200D02*
X31744000Y-109996300D01*
X34000000Y-108028200D02*
X33712100Y-108028200D01*
%TO.N,KILL_SWITCH_LOGIC_3V3*%
X86422400Y-59710500D02*
X89892900Y-56240000D01*
X86422400Y-161599000D02*
X86422400Y-59710500D01*
X90086400Y-165263000D02*
X86422400Y-161599000D01*
%TO.N,VBAT_SWITCHED*%
X102449100Y-150872300D02*
X116321400Y-137000000D01*
X102449100Y-173000000D02*
X102449100Y-150872300D01*
X60256000Y-187356800D02*
X62035700Y-189136500D01*
X60256000Y-139048300D02*
X60256000Y-187356800D01*
X61152600Y-138151700D02*
X60256000Y-139048300D01*
X61440500Y-138151700D02*
X61152600Y-138151700D01*
X61440500Y-137000000D02*
X61440500Y-138151700D01*
%TO.N,IP_NEG*%
X4000000Y-4848200D02*
X8301700Y-4848200D01*
X4000000Y-9999800D02*
X4000000Y-170333200D01*
X8301700Y-5698100D02*
X4000000Y-9999800D01*
X8301700Y-4848200D02*
X8301700Y-5698100D01*
%TO.N,IP_POS*%
X88134500Y-174796500D02*
X88134500Y-189099800D01*
X13660000Y-4848200D02*
X17961700Y-4848200D01*
X17961700Y-4848200D02*
X17961700Y-194879900D01*
%TO.N,GND*%
X59416800Y-107392800D02*
X61440500Y-109416500D01*
X59416800Y-45500000D02*
X59416800Y-107392800D01*
X32784000Y-156892500D02*
X34000000Y-155676500D01*
X32784000Y-171222200D02*
X32784000Y-156892500D01*
X159918500Y-53065600D02*
X159918500Y-99711800D01*
X150392900Y-43540000D02*
X159918500Y-53065600D01*
X9756500Y-27174700D02*
X9756500Y-44810000D01*
X8830000Y-26248200D02*
X9756500Y-27174700D01*
X159942500Y-99735800D02*
X159942500Y-135050000D01*
X159918500Y-99711800D02*
X159942500Y-99735800D01*
X32824700Y-110591800D02*
X34000000Y-109416500D01*
X32824700Y-131637100D02*
X32824700Y-110591800D01*
X35151700Y-133964100D02*
X32824700Y-131637100D01*
X35151700Y-154524800D02*
X35151700Y-133964100D01*
X34000000Y-155676500D02*
X35151700Y-154524800D01*
X35369000Y-195429700D02*
X35094300Y-195704400D01*
X35369000Y-173807200D02*
X35369000Y-195429700D01*
X32784000Y-171222200D02*
X35369000Y-173807200D01*
%TO.N,GND_TRACTION*%
X76170500Y-188031300D02*
X77275700Y-189136500D01*
X76170500Y-141426200D02*
X76170500Y-188031300D01*
X127017500Y-142616100D02*
X127017500Y-175280000D01*
X121401400Y-137000000D02*
X127017500Y-142616100D01*
X37287500Y-174201800D02*
X37287500Y-190265400D01*
%TD*%
M02*
