%TF.GenerationSoftware,KiCad,Pcbnew,9.0.9-9.0.9~ubuntu24.04.1*%
%TF.CreationDate,2026-05-31T22:25:00+03:00*%
%TF.ProjectId,autonomous_boat_system,6175746f-6e6f-46d6-9f75-735f626f6174,rev?*%
%TF.SameCoordinates,Original*%
%TF.FileFunction,Soldermask,Top*%
%TF.FilePolarity,Negative*%
%FSLAX46Y46*%
G04 Gerber Fmt 4.6, Leading zero omitted, Abs format (unit mm)*
G04 Created by KiCad (PCBNEW 9.0.9-9.0.9~ubuntu24.04.1) date 2026-05-31 22:25:00*
%MOMM*%
%LPD*%
G01*
G04 APERTURE LIST*
G04 Aperture macros list*
%AMRoundRect*
0 Rectangle with rounded corners*
0 $1 Rounding radius*
0 $2 $3 $4 $5 $6 $7 $8 $9 X,Y pos of 4 corners*
0 Add a 4 corners polygon primitive as box body*
4,1,4,$2,$3,$4,$5,$6,$7,$8,$9,$2,$3,0*
0 Add four circle primitives for the rounded corners*
1,1,$1+$1,$2,$3*
1,1,$1+$1,$4,$5*
1,1,$1+$1,$6,$7*
1,1,$1+$1,$8,$9*
0 Add four rect primitives between the rounded corners*
20,1,$1+$1,$2,$3,$4,$5,0*
20,1,$1+$1,$4,$5,$6,$7,0*
20,1,$1+$1,$6,$7,$8,$9,0*
20,1,$1+$1,$8,$9,$2,$3,0*%
G04 Aperture macros list end*
%ADD10R,2.000000X0.800000*%
%ADD11RoundRect,0.200000X-0.200000X-0.275000X0.200000X-0.275000X0.200000X0.275000X-0.200000X0.275000X0*%
%ADD12R,1.700000X1.700000*%
%ADD13C,1.700000*%
%ADD14RoundRect,0.150000X-0.512500X-0.150000X0.512500X-0.150000X0.512500X0.150000X-0.512500X0.150000X0*%
%ADD15RoundRect,0.250000X-1.350000X-1.350000X1.350000X-1.350000X1.350000X1.350000X-1.350000X1.350000X0*%
%ADD16C,3.200000*%
%ADD17RoundRect,0.250000X1.000000X-1.400000X1.000000X1.400000X-1.000000X1.400000X-1.000000X-1.400000X0*%
%ADD18RoundRect,0.250000X-1.050000X-1.050000X1.050000X-1.050000X1.050000X1.050000X-1.050000X1.050000X0*%
%ADD19C,2.600000*%
%ADD20C,2.000000*%
%ADD21RoundRect,0.250000X-0.850000X-0.350000X0.850000X-0.350000X0.850000X0.350000X-0.850000X0.350000X0*%
%ADD22RoundRect,0.249997X-2.950003X-2.650003X2.950003X-2.650003X2.950003X2.650003X-2.950003X2.650003X0*%
%ADD23C,3.000000*%
%ADD24RoundRect,0.100000X-0.637500X-0.100000X0.637500X-0.100000X0.637500X0.100000X-0.637500X0.100000X0*%
%ADD25C,1.524000*%
%ADD26O,8.000000X3.500000*%
G04 APERTURE END LIST*
D10*
%TO.C,U8*%
X123433300Y-48000000D03*
X123433300Y-46900000D03*
X123433300Y-45800000D03*
X123433300Y-44700000D03*
X123433300Y-43600000D03*
X123433300Y-42500000D03*
X123433300Y-41400000D03*
X123433300Y-38400000D03*
X123433300Y-37300000D03*
X123433300Y-36200000D03*
X123433300Y-35100000D03*
X123433300Y-34000000D03*
X111233300Y-34000000D03*
X111233300Y-35100000D03*
X111233300Y-36200000D03*
X111233300Y-37300000D03*
X111233300Y-38400000D03*
X111233300Y-41400000D03*
X111233300Y-42500000D03*
X111233300Y-43600000D03*
X111233300Y-44700000D03*
X111233300Y-45800000D03*
X111233300Y-46900000D03*
X111233300Y-48000000D03*
%TD*%
D11*
%TO.C,R2*%
X88056000Y-223136500D03*
X89706000Y-223136500D03*
%TD*%
D12*
%TO.C,U6*%
X61440500Y-106876500D03*
D13*
X61440500Y-109416500D03*
X61440500Y-111956500D03*
X61440500Y-114496500D03*
%TD*%
D14*
%TO.C,K1*%
X32862500Y-194879900D03*
X32862500Y-195829900D03*
X32862500Y-196779900D03*
X35137500Y-196779900D03*
X35137500Y-194879900D03*
%TD*%
D12*
%TO.C,U4*%
X193535700Y-137000000D03*
D13*
X193535700Y-139540000D03*
X193535700Y-142080000D03*
%TD*%
D15*
%TO.C,U12*%
X62035700Y-189136500D03*
D16*
X77275700Y-189136500D03*
%TD*%
D12*
%TO.C,C4*%
X104797600Y-223136500D03*
D13*
X104797600Y-225676500D03*
X104797600Y-228216500D03*
%TD*%
D12*
%TO.C,U2*%
X88881000Y-137000000D03*
D13*
X88881000Y-139540000D03*
X88881000Y-142080000D03*
X88881000Y-144620000D03*
%TD*%
D11*
%TO.C,R3*%
X92448800Y-207000000D03*
X94098800Y-207000000D03*
%TD*%
D17*
%TO.C,D1*%
X161914300Y-173000000D03*
X168714300Y-173000000D03*
%TD*%
D18*
%TO.C,U14*%
X97369100Y-173000000D03*
D19*
X102449100Y-173000000D03*
X107529100Y-173000000D03*
X112609100Y-173000000D03*
%TD*%
D12*
%TO.C,U3*%
X34000000Y-153136500D03*
D13*
X34000000Y-155676500D03*
X34000000Y-158216500D03*
%TD*%
D20*
%TO.C,U11*%
X59416800Y-41000000D03*
X65916800Y-41000000D03*
X59416800Y-45500000D03*
X65916800Y-45500000D03*
%TD*%
D14*
%TO.C,U13*%
X51553000Y-194879900D03*
X51553000Y-195829900D03*
X51553000Y-196779900D03*
X53828000Y-196779900D03*
X53828000Y-194879900D03*
%TD*%
D12*
%TO.C,U7*%
X34000000Y-106876500D03*
D13*
X34000000Y-109416500D03*
X34000000Y-111956500D03*
X34000000Y-114496500D03*
%TD*%
D12*
%TO.C,U21*%
X61440500Y-223136500D03*
D13*
X61440500Y-225676500D03*
%TD*%
D18*
%TO.C,U5*%
X116321400Y-137000000D03*
D19*
X121401400Y-137000000D03*
X126481400Y-137000000D03*
X131561400Y-137000000D03*
X136641400Y-137000000D03*
X141721400Y-137000000D03*
%TD*%
D21*
%TO.C,Q1*%
X145102900Y-170720000D03*
D22*
X151402900Y-173000000D03*
D21*
X145102900Y-175280000D03*
%TD*%
D12*
%TO.C,J3*%
X34000000Y-223136500D03*
D13*
X34000000Y-225676500D03*
%TD*%
D12*
%TO.C,C2*%
X61440500Y-137000000D03*
D13*
X61440500Y-139540000D03*
X61440500Y-142080000D03*
%TD*%
D18*
%TO.C,J2*%
X125107200Y-207000000D03*
D19*
X130187200Y-207000000D03*
%TD*%
D11*
%TO.C,U18*%
X105282100Y-189136500D03*
X106932100Y-189136500D03*
%TD*%
%TO.C,U17*%
X89365500Y-189136500D03*
X91015500Y-189136500D03*
%TD*%
D12*
%TO.C,C3*%
X150392900Y-41000000D03*
D13*
X150392900Y-43540000D03*
X150392900Y-46080000D03*
X150392900Y-48620000D03*
%TD*%
D23*
%TO.C,U15*%
X44500000Y-173000000D03*
X67000000Y-173000000D03*
%TD*%
D11*
%TO.C,U22*%
X33175000Y-207000000D03*
X34825000Y-207000000D03*
%TD*%
D12*
%TO.C,S1*%
X89892900Y-41000000D03*
D13*
X92432900Y-41000000D03*
X89892900Y-43540000D03*
X92432900Y-43540000D03*
X89892900Y-46080000D03*
X92432900Y-46080000D03*
X89892900Y-48620000D03*
X92432900Y-48620000D03*
X89892900Y-51160000D03*
X92432900Y-51160000D03*
X89892900Y-53700000D03*
X92432900Y-53700000D03*
X89892900Y-56240000D03*
X92432900Y-56240000D03*
X89892900Y-58780000D03*
X92432900Y-58780000D03*
X89892900Y-61320000D03*
X92432900Y-61320000D03*
X89892900Y-63860000D03*
X92432900Y-63860000D03*
X89892900Y-66400000D03*
X92432900Y-66400000D03*
X89892900Y-68940000D03*
X92432900Y-68940000D03*
X89892900Y-71480000D03*
X92432900Y-71480000D03*
X89892900Y-74020000D03*
X92432900Y-74020000D03*
X89892900Y-76560000D03*
X92432900Y-76560000D03*
X89892900Y-79100000D03*
X92432900Y-79100000D03*
X89892900Y-81640000D03*
X92432900Y-81640000D03*
X89892900Y-84180000D03*
X92432900Y-84180000D03*
X89892900Y-86720000D03*
X92432900Y-86720000D03*
X89892900Y-89260000D03*
X92432900Y-89260000D03*
X89892900Y-91800000D03*
X92432900Y-91800000D03*
X89892900Y-94340000D03*
X92432900Y-94340000D03*
X89892900Y-96880000D03*
X92432900Y-96880000D03*
X89892900Y-99420000D03*
X92432900Y-99420000D03*
%TD*%
D14*
%TO.C,U16*%
X42207700Y-188186500D03*
X42207700Y-189136500D03*
X42207700Y-190086500D03*
X44482700Y-190086500D03*
X44482700Y-188186500D03*
%TD*%
D12*
%TO.C,C1*%
X34000000Y-137000000D03*
D13*
X34000000Y-139540000D03*
X34000000Y-142080000D03*
%TD*%
D12*
%TO.C,U20*%
X65833300Y-207000000D03*
D13*
X65833300Y-209540000D03*
X65833300Y-212080000D03*
X65833300Y-214620000D03*
%TD*%
D12*
%TO.C,U10*%
X34000000Y-41000000D03*
D13*
X36540000Y-41000000D03*
X34000000Y-43540000D03*
X36540000Y-43540000D03*
X34000000Y-46080000D03*
X36540000Y-46080000D03*
X34000000Y-48620000D03*
X36540000Y-48620000D03*
X34000000Y-51160000D03*
X36540000Y-51160000D03*
X34000000Y-53700000D03*
X36540000Y-53700000D03*
X34000000Y-56240000D03*
X36540000Y-56240000D03*
X34000000Y-58780000D03*
X36540000Y-58780000D03*
X34000000Y-61320000D03*
X36540000Y-61320000D03*
X34000000Y-63860000D03*
X36540000Y-63860000D03*
X34000000Y-66400000D03*
X36540000Y-66400000D03*
X34000000Y-68940000D03*
X36540000Y-68940000D03*
X34000000Y-71480000D03*
X36540000Y-71480000D03*
X34000000Y-74020000D03*
X36540000Y-74020000D03*
X34000000Y-76560000D03*
X36540000Y-76560000D03*
X34000000Y-79100000D03*
X36540000Y-79100000D03*
X34000000Y-81640000D03*
X36540000Y-81640000D03*
X34000000Y-84180000D03*
X36540000Y-84180000D03*
X34000000Y-86720000D03*
X36540000Y-86720000D03*
X34000000Y-89260000D03*
X36540000Y-89260000D03*
%TD*%
D11*
%TO.C,R4*%
X108365500Y-207000000D03*
X110015500Y-207000000D03*
%TD*%
%TO.C,R1*%
X49091700Y-207000000D03*
X50741700Y-207000000D03*
%TD*%
D24*
%TO.C,U1*%
X166232700Y-135050000D03*
X166232700Y-135700000D03*
X166232700Y-136350000D03*
X166232700Y-137000000D03*
X166232700Y-137650000D03*
X166232700Y-138300000D03*
X166232700Y-138950000D03*
X171957700Y-138950000D03*
X171957700Y-138300000D03*
X171957700Y-137650000D03*
X171957700Y-137000000D03*
X171957700Y-136350000D03*
X171957700Y-135700000D03*
X171957700Y-135050000D03*
%TD*%
D25*
%TO.C,U23*%
X6920000Y-26248200D03*
X8830000Y-26248200D03*
X10740000Y-26248200D03*
D26*
X13660000Y-4848200D03*
X4000000Y-4848200D03*
%TD*%
D11*
%TO.C,U9*%
X73151200Y-41000000D03*
X74801200Y-41000000D03*
%TD*%
M02*
